<svg xmlns="http://www.w3.org/2000/svg" fill="none" viewBox="0 0 145 20">
  <path fill="#2196F3" d="M8.3.6h3.3l2 6.1L15.9.6H19L15.9 9l2.4 5.9L23.5.5h3.9L19.9 19h-3l-3.2-7.7-3.2 7.7h-3L0 .5h3.8L9.1 15l2.3-6L8.3.7Zm26 18.7c-1 0-2-.2-2.9-.6a7 7 0 0 1-3.7-3.8 7.5 7.5 0 0 1 0-5.4 6.8 6.8 0 0 1 3.7-3.8c.9-.4 1.9-.6 3-.6s2.1.2 3 .6A6.7 6.7 0 0 1 41 9.5a7.3 7.3 0 0 1 .4 3.8H31c0 .5.2 1 .4 1.4a3.5 3.5 0 0 0 3.2 2 4 4 0 0 0 2-.5c.6-.3 1-.8 1.2-1.3l3 .8c-.5 1-1.3 1.9-2.4 2.6-1 .6-2.4 1-4 1ZM38 11a3.5 3.5 0 0 0-6.7-1.3 4 4 0 0 0-.4 1.3H38Zm14.3 8.3c-1 0-2-.3-2.8-.7a5.1 5.1 0 0 1-2-2V19h-3V0H48v7.8A5.2 5.2 0 0 1 52.6 5c.9 0 1.7.2 2.4.6a6.6 6.6 0 0 1 3 3.8 8.4 8.4 0 0 1 0 5.5 6.4 6.4 0 0 1-3.4 3.7c-.7.4-1.5.6-2.4.6Zm-1-3 1.5-.3a3.8 3.8 0 0 0 2-2.2l.3-1.5c0-.6-.1-1.1-.3-1.6a4 4 0 0 0-1.9-2.3 3.2 3.2 0 0 0-3.5.4 5 5 0 0 0-1.4 2V14l.5 1 .8.7 1 .4 1 .2Z"/>
  <path fill="#000" d="m73 5.4-.7-.5-1.1-.6-1.5-.5c-.6-.2-1.1-.2-1.7-.2-1 0-1.7.1-2.2.5-.5.4-.7.9-.7 1.5 0 .4 0 .7.3 1 .1.2.4.5.8.6l1.3.6A51.4 51.4 0 0 0 71.8 9l1.8 1a4.5 4.5 0 0 1 1.6 3.7c0 1-.2 1.9-.5 2.6-.4.7-.9 1.2-1.5 1.7L71 19l-2.6.2a13.9 13.9 0 0 1-7.7-2.4l1.5-3 .9.5 1.4.8c.6.2 1.2.5 1.9.6.6.2 1.3.3 2 .3 2 0 3-.6 3-2a2 2 0 0 0-.3-1l-1-.7-1.5-.5a270.2 270.2 0 0 0-4.3-1.4c-.6-.3-1.2-.6-1.6-1-.4-.4-.8-.8-1-1.3a5 5 0 0 1-.3-1.9c0-1 .2-1.8.5-2.5.4-.7.8-1.3 1.5-1.8.6-.5 1.3-.9 2.1-1.1a10 10 0 0 1 6.2.2c1.1.4 2 1 2.9 1.5L73 5.4Zm13.4 12.9-1.7.6-2.1.3-1.4-.1-1.1-.6a3 3 0 0 1-.8-1c-.2-.5-.3-1-.3-1.6V8h-1.8V5.4H79V1h3.5v4.4h2.9V8h-2.9v6.6c0 .5.1.8.4 1 .2.2.5.3.9.3l1-.1.9-.4.7 2.8Zm6.8 1c-1.4 0-2.5-.5-3.2-1.4-.8-.9-1.1-2.2-1.1-4V5.4h3.4v7.8c0 2 .8 3.1 2.3 3.1.7 0 1.3-.2 2-.6.6-.4 1.1-1 1.5-1.9V5.4h3.5V15c0 .4 0 .6.2.8l.6.2v3a7.3 7.3 0 0 1-1.5.2c-.6 0-1.1-.2-1.5-.5-.4-.3-.6-.7-.7-1.2v-1c-.7.9-1.4 1.6-2.4 2a7 7 0 0 1-3.1.8Zm18.3 0a6.2 6.2 0 0 1-4.7-2 7.3 7.3 0 0 1-1.8-5.1 8.2 8.2 0 0 1 1.7-5c.6-.6 1.2-1.1 2-1.5a5.5 5.5 0 0 1 7 2V0h3.5v15c0 .4 0 .6.2.8l.6.2v3a8 8 0 0 1-1.5.2c-.6 0-1.1-.2-1.5-.5-.4-.3-.6-.7-.7-1.2v-.9a5 5 0 0 1-2.1 2c-.9.4-1.8.7-2.7.7Zm.9-3c.3 0 .7 0 1-.2a3.9 3.9 0 0 0 2.3-2v-3.3c-.1-.4-.3-.8-.6-1-.2-.4-.5-.7-.9-1a4 4 0 0 0-1-.5l-1-.2a3.2 3.2 0 0 0-2.6 1.3l-.7 1.3a4.8 4.8 0 0 0 0 3.2l.8 1.2a3.6 3.6 0 0 0 2.7 1.2Zm11 2.7V5.4h3.5V19h-3.5Zm0-15.5V0h3.5v3.5h-3.5ZM137 19.3c-1.1 0-2.1-.2-3-.6a7 7 0 0 1-2.3-1.5 7 7 0 0 1-1.9-5 7.4 7.4 0 0 1 2-5 7.1 7.1 0 0 1 5.2-2.1c1 0 2 .2 3 .6.8.4 1.6 1 2.2 1.6.6.6 1 1.4 1.4 2.2a7.4 7.4 0 0 1-1.4 7.7 7.1 7.1 0 0 1-5.2 2.1Zm-3.6-7 .3 1.6.7 1.3c.4.3.7.6 1.2.8a3.5 3.5 0 0 0 2.8 0l1.1-.8.8-1.3c.2-.6.2-1.1.2-1.7a4.6 4.6 0 0 0-1-3l-1.1-.8c-.4-.2-1-.3-1.4-.3-.5 0-1 .1-1.4.3a3.7 3.7 0 0 0-2 2.2 5 5 0 0 0-.2 1.6Z"/>
</svg>
